<?xml version="1.0" standalone="no"?>
<!DOCTYPE svg PUBLIC "-//W3C//DTD SVG 20010904//EN"
 "http://www.w3.org/TR/2001/REC-SVG-20010904/DTD/svg10.dtd">
<svg version="1.0" xmlns="http://www.w3.org/2000/svg"
 width="425.000000pt" height="425.000000pt" viewBox="0 0 425.000000 425.000000"
 preserveAspectRatio="xMidYMid meet">

<g transform="translate(0.000000,425.000000) scale(0.100000,-0.100000)"
fill="#000000" stroke="none">
<path d="M2837 3463 c-4 -3 -7 -36 -7 -73 l0 -66 77 -12 c125 -20 228 -76 333
-181 166 -165 269 -370 332 -661 19 -92 22 -134 23 -340 0 -206 -3 -249 -23
-348 -99 -488 -363 -814 -695 -857 l-48 -6 3 -72 3 -72 50 3 c172 11 346 100
489 252 188 200 314 489 362 827 24 175 15 484 -20 649 -109 517 -402 881
-764 950 -82 16 -106 17 -115 7z"/>
<path d="M1990 3393 c-18 -7 -827 -581 -887 -630 l-43 -34 0 -604 0 -604 42
-34 c70 -55 871 -623 891 -630 19 -7 56 8 69 27 4 6 8 565 8 1241 0 677 -4
1235 -8 1241 -7 10 -47 35 -54 33 -2 0 -10 -3 -18 -6z"/>
<path d="M2442 3041 l3 -76 54 -7 c77 -9 188 -67 256 -134 264 -260 340 -759
174 -1148 -89 -210 -272 -376 -432 -393 l-57 -6 0 -73 0 -74 38 0 c21 0 64 7
97 15 342 89 586 491 588 965 1 167 -13 266 -55 400 -108 338 -336 567 -597
598 l-72 8 3 -75z"/>
<path d="M910 2726 c-103 -21 -185 -86 -237 -186 l-28 -55 0 -355 0 -355 33
-67 c53 -108 167 -188 267 -188 l35 0 0 604 c0 333 -3 607 -7 609 -5 2 -33 -1
-63 -7z"/>
<path d="M2192 2599 l3 -73 38 -8 c176 -36 294 -251 258 -469 -27 -168 -127
-290 -258 -317 l-38 -8 -3 -73 -3 -74 58 7 c166 19 318 167 379 371 25 82 25
258 0 340 -61 204 -213 352 -379 371 l-58 7 3 -74z"/>
</g>
</svg>
