<?xml version="1.0" standalone="no"?>
<!DOCTYPE svg PUBLIC "-//W3C//DTD SVG 20010904//EN"
 "http://www.w3.org/TR/2001/REC-SVG-20010904/DTD/svg10.dtd">
<svg version="1.0" xmlns="http://www.w3.org/2000/svg"
 width="150.000000pt" height="150.000000pt" viewBox="0 0 150.000000 150.000000"
 preserveAspectRatio="xMidYMid meet">

<g transform="translate(0.000000,150.000000) scale(0.100000,-0.100000)"
fill="#000000" stroke="none">
<path d="M613 1265 c-191 -53 -344 -214 -384 -402 -26 -127 8 -302 79 -406
102 -147 273 -236 452 -237 234 0 444 167 505 400 22 84 16 220 -14 305 -53
149 -176 272 -327 326 -78 28 -237 35 -311 14z m97 -64 c0 -60 -87 -251 -115
-251 -6 0 -44 34 -85 75 l-75 76 25 20 c52 43 159 86 243 98 4 1 7 -8 7 -18z
m202 -11 c30 -11 76 -34 102 -52 l48 -31 -156 -156 -156 -156 -54 54 -53 53
37 56 c43 65 75 146 85 216 l8 48 42 -5 c23 -4 67 -15 97 -27z m-383 -309
c-39 -33 -139 -79 -197 -89 l-53 -9 6 31 c16 78 37 135 71 190 l37 58 80 -80
81 -81 -25 -20z m610 133 c35 -53 65 -130 75 -190 l7 -42 -70 -15 c-76 -18
-171 -61 -218 -101 l-30 -25 -53 54 -53 54 147 156 c82 85 152 155 156 155 5
0 22 -21 39 -46z m-583 -418 c-82 -86 -152 -156 -156 -156 -14 0 -68 90 -90
146 -11 30 -21 73 -22 96 l-3 42 53 8 c61 9 160 53 217 96 l40 30 54 -53 55
-54 -148 -155z m658 92 c-17 -99 -67 -210 -104 -233 -13 -8 -162 133 -157 149
10 30 178 105 259 115 4 1 5 -14 2 -31z m-408 -39 l51 -51 -37 -56 c-43 -65
-75 -146 -85 -215 l-7 -48 -47 7 c-64 9 -139 38 -195 76 l-48 31 154 154 c84
84 155 153 158 153 2 0 28 -23 56 -51z m184 -174 c43 -44 71 -79 65 -83 -85
-61 -134 -83 -238 -107 l-29 -6 7 43 c13 83 83 228 110 228 6 0 44 -34 85 -75z"/>
</g>
</svg>
